<svg id="visual" viewBox="0 0 900 600" width="900" height="600" xmlns="http://www.w3.org/2000/svg" xmlns:xlink="http://www.w3.org/1999/xlink" version="1.1"><rect x="0" y="0" width="900" height="600" fill="#210569"></rect><path d="M0 474L30 482.8C60 491.7 120 509.3 180 510.8C240 512.3 300 497.7 360 499.2C420 500.7 480 518.3 540 518.7C600 519 660 502 720 491.7C780 481.3 840 477.7 870 475.8L900 474L900 601L870 601C840 601 780 601 720 601C660 601 600 601 540 601C480 601 420 601 360 601C300 601 240 601 180 601C120 601 60 601 30 601L0 601Z" fill="#120338" stroke-linecap="round" stroke-linejoin="miter"></path></svg>